<?xml version="1.0" encoding="UTF-8" standalone="no"?>
<!-- Created with Inkscape (http://www.inkscape.org/) -->

<svg
   width="1280"
   height="720"
   viewBox="0 0 1280 720"
   version="1.1"
   id="svg5"
   inkscape:version="1.2.2 (b0a8486541, 2022-12-01)"
   sodipodi:docname="intro-client-side-rendering.svg"
   xmlns:inkscape="http://www.inkscape.org/namespaces/inkscape"
   xmlns:sodipodi="http://sodipodi.sourceforge.net/DTD/sodipodi-0.dtd"
   xmlns="http://www.w3.org/2000/svg"
   xmlns:svg="http://www.w3.org/2000/svg">
  <style
     id="style6471">
     
* { transform-box: fill-box; } 
@keyframes spin {
  from {
    transform: rotate(0deg);
  }

  to {
    transform: rotate(360deg);
  }
}

.rotate {
   transform-origin: center;
  animation: spin 2s linear infinite;
}

@keyframes wait {
   
  0% {
    transform: rotate(0deg);
  }
  45% {
    transform: rotate(0deg);
  }
   50% {
    transform: rotate(180deg);
   }
   95% {
      transform: rotate(180deg);
   }
  100% {
    transform: rotate(360deg);
  }
}
.wait {
  transform-origin: center;
  animation: wait 4s linear infinite;
}
  </style>
  <sodipodi:namedview
     id="namedview7"
     pagecolor="#ffffff"
     bordercolor="#666666"
     borderopacity="1.0"
     inkscape:showpageshadow="2"
     inkscape:pageopacity="0.0"
     inkscape:pagecheckerboard="0"
     inkscape:deskcolor="#d1d1d1"
     inkscape:document-units="px"
     showgrid="true"
     inkscape:zoom="1.0370662"
     inkscape:cx="228.04716"
     inkscape:cy="424.75591"
     inkscape:window-width="987"
     inkscape:window-height="1025"
     inkscape:window-x="0"
     inkscape:window-y="0"
     inkscape:window-maximized="0"
     inkscape:current-layer="svg5">
    <inkscape:grid
       type="xygrid"
       id="grid238" />
  </sodipodi:namedview>
  <defs
     id="defs2">
    <marker
       style="overflow:visible"
       id="marker4425"
       refX="0"
       refY="0"
       orient="auto-start-reverse"
       inkscape:stockid="Arrow3"
       markerWidth="4.2071066"
       markerHeight="7"
       viewBox="0 0 4.2071068 7"
       inkscape:isstock="true"
       inkscape:collect="always"
       preserveAspectRatio="xMidYMid">
      <path
         style="fill:none;stroke:context-stroke;stroke-width:1;stroke-linecap:round"
         d="M 3,-3 0,0 3,3"
         id="path4423"
         transform="rotate(180,0.125,0)"
         sodipodi:nodetypes="ccc" />
    </marker>
    <marker
       style="overflow:visible"
       id="Arrow3"
       refX="0"
       refY="0"
       orient="auto-start-reverse"
       inkscape:stockid="Arrow3"
       markerWidth="4.2071066"
       markerHeight="7"
       viewBox="0 0 4.2071068 7"
       inkscape:isstock="true"
       inkscape:collect="always"
       preserveAspectRatio="xMidYMid">
      <path
         style="fill:none;stroke:context-stroke;stroke-width:1;stroke-linecap:round"
         d="M 3,-3 0,0 3,3"
         id="arrow3"
         transform="rotate(180,0.125,0)"
         sodipodi:nodetypes="ccc" />
    </marker>
    <marker
       style="overflow:visible"
       id="marker3014"
       refX="0"
       refY="0"
       orient="auto-start-reverse"
       inkscape:stockid="Arrow3"
       markerWidth="4.2071066"
       markerHeight="7"
       viewBox="0 0 4.2071068 7"
       inkscape:isstock="true"
       inkscape:collect="always"
       preserveAspectRatio="xMidYMid">
      <path
         style="fill:none;stroke:context-stroke;stroke-width:1;stroke-linecap:round"
         d="M 3,-3 0,0 3,3"
         id="path3012"
         transform="rotate(180,0.125,0)"
         sodipodi:nodetypes="ccc" />
    </marker>
    <marker
       style="overflow:visible"
       id="Arrow3-6"
       refX="0"
       refY="0"
       orient="auto-start-reverse"
       inkscape:stockid="Arrow3"
       markerWidth="4.2071066"
       markerHeight="7"
       viewBox="0 0 4.2071068 7"
       inkscape:isstock="true"
       inkscape:collect="always"
       preserveAspectRatio="xMidYMid">
      <path
         style="fill:none;stroke:context-stroke;stroke-width:1;stroke-linecap:round"
         d="M 3,-3 0,0 3,3"
         id="arrow3-0"
         transform="rotate(180,0.125,0)"
         sodipodi:nodetypes="ccc" />
    </marker>
    <marker
       style="overflow:visible"
       id="marker3014-2"
       refX="0"
       refY="0"
       orient="auto-start-reverse"
       inkscape:stockid="Arrow3"
       markerWidth="4.2071066"
       markerHeight="7"
       viewBox="0 0 4.2071068 7"
       inkscape:isstock="true"
       inkscape:collect="always"
       preserveAspectRatio="xMidYMid">
      <path
         style="fill:none;stroke:context-stroke;stroke-width:1;stroke-linecap:round"
         d="M 3,-3 0,0 3,3"
         id="path3012-6"
         transform="rotate(180,0.125,0)"
         sodipodi:nodetypes="ccc" />
    </marker>
    <marker
       style="overflow:visible"
       id="marker4425-7"
       refX="0"
       refY="0"
       orient="auto-start-reverse"
       inkscape:stockid="Arrow3"
       markerWidth="4.2071066"
       markerHeight="7"
       viewBox="0 0 4.2071068 7"
       inkscape:isstock="true"
       inkscape:collect="always"
       preserveAspectRatio="xMidYMid">
      <path
         style="fill:none;stroke:context-stroke;stroke-width:1;stroke-linecap:round"
         d="M 3,-3 0,0 3,3"
         id="path4423-5"
         transform="rotate(180,0.125,0)"
         sodipodi:nodetypes="ccc" />
    </marker>
    <marker
       style="overflow:visible"
       id="marker4425-7-9"
       refX="0"
       refY="0"
       orient="auto-start-reverse"
       inkscape:stockid="Arrow3"
       markerWidth="4.2071066"
       markerHeight="7"
       viewBox="0 0 4.2071068 7"
       inkscape:isstock="true"
       inkscape:collect="always"
       preserveAspectRatio="xMidYMid">
      <path
         style="fill:none;stroke:context-stroke;stroke-width:1;stroke-linecap:round"
         d="M 3,-3 0,0 3,3"
         id="path4423-5-7"
         transform="rotate(180,0.125,0)"
         sodipodi:nodetypes="ccc" />
    </marker>
  </defs>
  <rect
     style="fill:#1e1e2e;stroke-width:7.55906;stroke-linecap:round;stroke-linejoin:bevel;stroke-miterlimit:10"
     id="background"
     width="1280"
     height="720"
     x="0"
     y="0"
     sodipodi:insensitive="true" />
  <g
     inkscape:label="Layer 1"
     inkscape:groupmode="layer"
     id="layer1" />
  <rect
     style="fill:#11111b;stroke:#cdd6f4;stroke-width:3;stroke-linecap:round;stroke-linejoin:bevel;stroke-miterlimit:10;stroke-dasharray:none"
     id="rect455"
     width="203.27705"
     height="85.16053"
     x="60.485004"
     y="42.787769" />
  <text
     xml:space="preserve"
     style="font-size:26.6667px;line-height:1.25;font-family:Poppins;-inkscape-font-specification:Poppins;fill:#cdd6f4;stroke:none"
     x="117.2558"
     y="94.776596"
     id="text2144"><tspan
       sodipodi:role="line"
       id="tspan2142"
       x="117.2558"
       y="94.776596">CLIENT</tspan></text>
  <rect
     style="fill:#11111b;stroke:#cdd6f4;stroke-width:3;stroke-linecap:round;stroke-linejoin:bevel;stroke-miterlimit:10;stroke-dasharray:none"
     id="rect455-6"
     width="203.27705"
     height="85.16053"
     x="1014.4164"
     y="43.296646" />
  <text
     xml:space="preserve"
     style="font-size:26.6667px;line-height:1.25;font-family:Poppins;-inkscape-font-specification:Poppins;fill:#cdd6f4;stroke:none"
     x="1071.1873"
     y="95.285484"
     id="text2144-2"><tspan
       sodipodi:role="line"
       id="tspan2142-9"
       x="1071.1873"
       y="95.285484">SERVER</tspan></text>
  <path
     style="fill:none;stroke:#cdd6f4;stroke-width:3;stroke-linecap:butt;stroke-linejoin:miter;stroke-dasharray:none;stroke-opacity:1"
     d="M 151.47456,127.37042 V 665.97608"
     id="path2278" />
  <path
     style="fill:none;stroke:#cdd6f4;stroke-width:3;stroke-linecap:butt;stroke-linejoin:miter;stroke-dasharray:none;stroke-opacity:1"
     d="M 1114.875,128.97287 V 667.57853"
     id="path2278-1" />
  <path
     d="m 265.31271,312.87937 c -6.8044,0 -12.3422,-5.53784 -12.3422,-12.34219 0,-6.80435 5.5378,-12.3422 12.3422,-12.3422 6.8043,0 12.3422,5.53785 12.3422,12.3422 0,6.80435 -5.5379,12.34219 -12.3422,12.34219 z m 0,-27.83823 c -8.5427,0 -15.496,6.95335 -15.496,15.49604 0,8.54268 6.9533,15.49603 15.496,15.49603 8.5427,0 15.496,-6.95335 15.496,-15.49603 0,-8.54269 -6.9533,-15.49604 -15.496,-15.49604 z m 31.6129,21.40638 h -5.5876 c -0.7201,0 -1.341,0.47184 -1.5148,1.16717 -0.596,2.21018 -1.5148,3.79951 -2.6075,5.63718 -0.3725,0.62084 -0.2483,1.41551 0.2484,1.93701 l 3.9484,3.89884 -7.5989,7.54935 -3.9485,-3.92367 c -0.4967,-0.5215 -1.2914,-0.62084 -1.8874,-0.24834 l -0.3476,0.19867 c -1.8626,1.06784 -3.2036,1.83767 -5.2151,2.38401 -0.6953,0.17383 -1.192,0.79467 -1.192,1.51483 v 5.58752 h -11.8207 v -5.58752 c 0,-0.69533 -0.4966,-1.341 -1.1671,-1.51483 -2.1854,-0.57117 -3.7499,-1.44034 -5.7117,-2.60751 -0.6208,-0.34767 -1.4155,-0.24833 -1.937,0.24833 l -3.8989,3.94851 -7.5245,-7.57418 3.9237,-3.94851 c 0.4967,-0.5215 0.596,-1.29134 0.2483,-1.91217 l -0.1738,-0.298 c -1.0927,-1.86251 -1.8625,-3.22834 -2.4088,-5.26468 -0.1739,-0.69534 -0.8195,-1.19201 -1.5397,-1.19201 h -5.513 v -11.82069 h 5.5875 c 0.6953,0 1.341,-0.49667 1.5148,-1.16717 0.596,-2.23501 1.49,-3.84918 2.6075,-5.76135 0.3477,-0.62083 0.2484,-1.4155 -0.2483,-1.91217 l -3.9485,-3.92368 7.5742,-7.54935 3.9485,3.92368 c 0.4967,0.5215 1.2913,0.62083 1.9122,0.24833 l 0.2731,-0.149 c 1.8874,-1.09267 3.2532,-1.88734 5.2895,-2.43367 0.6954,-0.17384 1.192,-0.8195 1.192,-1.53967 v -5.43852 h 11.8207 v 5.56268 c 0,0.69534 0.4719,1.34101 1.1672,1.51484 2.0115,0.54634 3.3525,1.341 5.215,2.43367 l 0.2732,0.149 c 0.6208,0.3725 1.4155,0.27317 1.9122,-0.24833 l 3.8491,-3.89884 7.45,7.52452 -3.8988,3.94851 c -0.4967,0.49666 -0.596,1.2665 -0.2235,1.88733 1.0927,1.93701 1.9618,3.45185 2.533,5.63718 0.1986,0.69534 0.8195,1.19201 1.5396,1.19201 h 5.8856 z m 0.1986,-14.97453 h -4.8921 c -0.5216,-1.58934 -1.1921,-2.88068 -1.9371,-4.19685 l 3.1787,-3.22834 c 1.1175,-1.14234 1.1175,-3.00484 0,-4.14718 l -7.7231,-7.82252 c -1.1175,-1.14233 -3.0794,-1.14233 -4.2217,0 l -3.1042,3.15385 c -1.2913,-0.74501 -2.533,-1.39067 -4.0478,-1.91218 v -4.59417 c 0,-1.61417 -1.3162,-2.95518 -2.9552,-2.95518 h -12.218 c -1.639,0 -2.9552,1.34101 -2.9552,2.95518 v 4.47001 c -1.5645,0.5215 -2.831,1.192 -4.1472,1.96184 l -3.2283,-3.22835 c -1.1424,-1.14233 -3.0297,-1.14233 -4.172,0 l -7.8474,7.82252 c -0.5712,0.57117 -0.8692,1.31617 -0.8692,2.11084 0,0.79467 0.298,1.53967 0.8692,2.08601 l 3.2035,3.20351 c -0.745,1.36583 -1.4403,2.70684 -1.9618,4.32101 h -4.5942 c -1.6142,0 -2.9552,1.31617 -2.9552,2.95517 v 12.21803 c 0,1.63901 1.341,2.95518 2.9552,2.95518 h 4.5445 c 0.5215,1.5645 1.192,2.831 1.937,4.14717 l -3.2035,3.22834 c -1.1423,1.14234 -1.1423,3.00484 0,4.17201 l 7.7977,7.84736 c 0.5712,0.57117 1.3162,0.86917 2.1108,0.86917 v 0 c 0.7947,0 1.5397,-0.298 2.1109,-0.86917 l 3.1787,-3.20351 c 1.3658,0.76983 2.682,1.44034 4.2713,1.96184 v 4.59418 c 0,1.61417 1.3162,2.95517 2.9552,2.95517 h 12.218 c 1.639,0 2.9552,-1.341 2.9552,-2.95517 v -4.59418 c 1.5645,-0.54634 2.8062,-1.19201 4.1223,-1.96184 l 3.2284,3.20351 c 1.1671,1.16717 3.0296,1.16717 4.172,0 l 7.8721,-7.79769 c 0.5712,-0.57117 0.8692,-1.31617 0.8692,-2.11084 0,-0.79467 -0.298,-1.53967 -0.8692,-2.086 l -3.2035,-3.20351 c 0.7202,-1.29134 1.4155,-2.60751 1.9619,-4.19684 h 4.5941 c 1.6142,0 2.9552,-1.31617 2.9552,-2.95518 v -12.21803 c 0,-1.639 -1.341,-2.95517 -2.9552,-2.95517 z"
     fill="#cdd6f4"
     stroke="none"
     pointer-events="all"
     id="gear"
     style="fill:#fab387;stroke:none;stroke-width:2;stroke-dasharray:none"
     class="rotate" />
  <path
     style="fill:none;fill-rule:evenodd;stroke:#cdd6f4;stroke-width:3;stroke-linecap:butt;stroke-linejoin:miter;stroke-dasharray:none;stroke-opacity:1;marker-end:url(#Arrow3)"
     d="m 154.77289,190.16133 940.13121,2.06993"
     id="path2731"
     inkscape:connector-type="polyline"
     inkscape:connector-curvature="0" />
  <path
     style="fill:#cdd6f4;fill-rule:evenodd;stroke:#cdd6f4;stroke-width:3;stroke-linecap:butt;stroke-linejoin:miter;stroke-dasharray:none;stroke-opacity:1;marker-end:url(#marker3014)"
     d="M 1101.1412,241.88811 162.28993,244.938"
     id="path3004"
     inkscape:connector-type="polyline"
     inkscape:connector-curvature="0" />
  <path
     style="fill:#cdd6f4;fill-rule:evenodd;stroke:#cdd6f4;stroke-width:3;stroke-linecap:butt;stroke-linejoin:miter;stroke-dasharray:none;stroke-opacity:1;marker-end:url(#marker3014-2)"
     d="m 1104.6402,460.29225 -938.85125,3.04989"
     id="path3004-1"
     inkscape:connector-type="polyline"
     inkscape:connector-curvature="0" />
  <text
     xml:space="preserve"
     style="font-size:26.6667px;line-height:1.25;font-family:Poppins;-inkscape-font-specification:Poppins"
     x="537.39447"
     y="167.72769"
     id="text2996"><tspan
       sodipodi:role="line"
       id="tspan2994"
       x="537.39447"
       y="167.72769"
       style="fill:#cdd6f4">GET /page-path/</tspan></text>
  <text
     xml:space="preserve"
     style="font-size:26.6667px;line-height:1.25;font-family:Poppins;-inkscape-font-specification:Poppins"
     x="536.23187"
     y="343.92783"
     id="text2996-8"><tspan
       sodipodi:role="line"
       id="tspan2994-7"
       x="536.23187"
       y="343.92783"
       style="fill:#cdd6f4">GET /*.js , /*.css</tspan></text>
  <text
     xml:space="preserve"
     style="font-size:26.6667px;line-height:1.25;font-family:Poppins;-inkscape-font-specification:Poppins"
     x="505.62421"
     y="234.31192"
     id="text2996-9"><tspan
       sodipodi:role="line"
       id="tspan2994-3"
       x="505.62421"
       y="234.31192"
       style="fill:#cdd6f4">RESPONSE: index.html</tspan><tspan
       sodipodi:role="line"
       x="505.62421"
       y="267.64532"
       style="fill:#cdd6f4"
       id="tspan5391">with empty &lt;body&gt;</tspan></text>
  <path
     style="fill:none;fill-rule:evenodd;stroke:#fab387;stroke-width:3;stroke-linecap:butt;stroke-linejoin:miter;stroke-dasharray:none;stroke-opacity:1;marker-end:url(#marker4425)"
     d="m 177.87864,259.54568 c 51.73051,25.03194 61.00919,51.10711 -1.52998,78.94716"
     id="path4008"
     inkscape:connector-type="polyline"
     inkscape:connector-curvature="0"
     sodipodi:nodetypes="cc" />
  <text
     xml:space="preserve"
     style="font-style:normal;font-variant:normal;font-weight:bold;font-stretch:normal;font-size:26.6667px;line-height:1.25;font-family:Poppins;-inkscape-font-specification:'Poppins Bold';fill:#fab387"
     x="324.99811"
     y="311.32428"
     id="text4555"><tspan
       sodipodi:role="line"
       id="tspan4553"
       x="324.99811"
       y="311.32428">WORK</tspan></text>
  <path
     d="m 268.32637,540.89063 c -6.8044,0 -12.3422,-5.53784 -12.3422,-12.34219 0,-6.80435 5.5378,-12.3422 12.3422,-12.3422 6.8043,0 12.3422,5.53785 12.3422,12.3422 0,6.80435 -5.5379,12.34219 -12.3422,12.34219 z m 0,-27.83823 c -8.5427,0 -15.496,6.95335 -15.496,15.49604 0,8.54268 6.9533,15.49603 15.496,15.49603 8.5427,0 15.496,-6.95335 15.496,-15.49603 0,-8.54269 -6.9533,-15.49604 -15.496,-15.49604 z m 31.6129,21.40638 h -5.5876 c -0.7201,0 -1.341,0.47184 -1.5148,1.16717 -0.596,2.21018 -1.5148,3.79951 -2.6075,5.63718 -0.3725,0.62084 -0.2483,1.41551 0.2484,1.93701 l 3.9484,3.89884 -7.5989,7.54935 -3.9485,-3.92367 c -0.4967,-0.5215 -1.2914,-0.62084 -1.8874,-0.24834 l -0.3476,0.19867 c -1.8626,1.06784 -3.2036,1.83767 -5.2151,2.38401 -0.6953,0.17383 -1.192,0.79467 -1.192,1.51483 v 5.58752 h -11.8207 v -5.58752 c 0,-0.69533 -0.4966,-1.341 -1.1671,-1.51483 -2.1854,-0.57117 -3.7499,-1.44034 -5.7117,-2.60751 -0.6208,-0.34767 -1.4155,-0.24833 -1.937,0.24833 l -3.8989,3.94851 -7.5245,-7.57418 3.9237,-3.94851 c 0.4967,-0.5215 0.596,-1.29134 0.2483,-1.91217 l -0.1738,-0.298 c -1.0927,-1.86251 -1.8625,-3.22834 -2.4088,-5.26468 -0.1739,-0.69534 -0.8195,-1.19201 -1.5397,-1.19201 h -5.513 v -11.82069 h 5.5875 c 0.6953,0 1.341,-0.49667 1.5148,-1.16717 0.596,-2.23501 1.49,-3.84918 2.6075,-5.76135 0.3477,-0.62083 0.2484,-1.4155 -0.2483,-1.91217 l -3.9485,-3.92368 7.5742,-7.54935 3.9485,3.92368 c 0.4967,0.5215 1.2913,0.62083 1.9122,0.24833 l 0.2731,-0.149 c 1.8874,-1.09267 3.2532,-1.88734 5.2895,-2.43367 0.6954,-0.17384 1.192,-0.8195 1.192,-1.53967 v -5.43852 h 11.8207 v 5.56268 c 0,0.69534 0.4719,1.34101 1.1672,1.51484 2.0115,0.54634 3.3525,1.341 5.215,2.43367 l 0.2732,0.149 c 0.6208,0.3725 1.4155,0.27317 1.9122,-0.24833 l 3.8491,-3.89884 7.45,7.52452 -3.8988,3.94851 c -0.4967,0.49666 -0.596,1.2665 -0.2235,1.88733 1.0927,1.93701 1.9618,3.45185 2.533,5.63718 0.1986,0.69534 0.8195,1.19201 1.5396,1.19201 h 5.8856 z m 0.1986,-14.97453 h -4.8921 c -0.5216,-1.58934 -1.1921,-2.88068 -1.9371,-4.19685 l 3.1787,-3.22834 c 1.1175,-1.14234 1.1175,-3.00484 0,-4.14718 l -7.7231,-7.82252 c -1.1175,-1.14233 -3.0794,-1.14233 -4.2217,0 l -3.1042,3.15385 c -1.2913,-0.74501 -2.533,-1.39067 -4.0478,-1.91218 v -4.59417 c 0,-1.61417 -1.3162,-2.95518 -2.9552,-2.95518 h -12.218 c -1.639,0 -2.9552,1.34101 -2.9552,2.95518 v 4.47001 c -1.5645,0.5215 -2.831,1.192 -4.1472,1.96184 l -3.2283,-3.22835 c -1.1424,-1.14233 -3.0297,-1.14233 -4.172,0 l -7.8474,7.82252 c -0.5712,0.57117 -0.8692,1.31617 -0.8692,2.11084 0,0.79467 0.298,1.53967 0.8692,2.08601 l 3.2035,3.20351 c -0.745,1.36583 -1.4403,2.70684 -1.9618,4.32101 h -4.5942 c -1.6142,0 -2.9552,1.31617 -2.9552,2.95517 v 12.21803 c 0,1.63901 1.341,2.95518 2.9552,2.95518 h 4.5445 c 0.5215,1.5645 1.192,2.831 1.937,4.14717 l -3.2035,3.22834 c -1.1423,1.14234 -1.1423,3.00484 0,4.17201 l 7.7977,7.84736 c 0.5712,0.57117 1.3162,0.86917 2.1108,0.86917 v 0 c 0.7947,0 1.5397,-0.298 2.1109,-0.86917 l 3.1787,-3.20351 c 1.3658,0.76983 2.682,1.44034 4.2713,1.96184 v 4.59418 c 0,1.61417 1.3162,2.95517 2.9552,2.95517 h 12.218 c 1.639,0 2.9552,-1.341 2.9552,-2.95517 v -4.59418 c 1.5645,-0.54634 2.8062,-1.19201 4.1223,-1.96184 l 3.2284,3.20351 c 1.1671,1.16717 3.0296,1.16717 4.172,0 l 7.8721,-7.79769 c 0.5712,-0.57117 0.8692,-1.31617 0.8692,-2.11084 0,-0.79467 -0.298,-1.53967 -0.8692,-2.086 l -3.2035,-3.20351 c 0.7202,-1.29134 1.4155,-2.60751 1.9619,-4.19684 h 4.5941 c 1.6142,0 2.9552,-1.31617 2.9552,-2.95518 v -12.21803 c 0,-1.639 -1.341,-2.95517 -2.9552,-2.95517 z"
     fill="#cdd6f4"
     stroke="none"
     pointer-events="all"
     id="gear-9"
     style="fill:#fab387;stroke:none;stroke-width:2;stroke-dasharray:none"
     class="rotate" />
  <path
     style="fill:none;fill-rule:evenodd;stroke:#fab387;stroke-width:3;stroke-linecap:butt;stroke-linejoin:miter;stroke-dasharray:none;stroke-opacity:1;marker-end:url(#marker4425-7)"
     d="m 180.8923,487.55694 c 61.32196,30.48086 34.78858,55.04358 -1.52998,78.94716"
     id="path4008-2"
     inkscape:connector-type="polyline"
     inkscape:connector-curvature="0"
     sodipodi:nodetypes="cc" />
  <path
     style="fill:none;fill-rule:evenodd;stroke:#cba6f7;stroke-width:3;stroke-linecap:butt;stroke-linejoin:miter;stroke-dasharray:none;stroke-opacity:1;marker-end:url(#marker4425-7-9)"
     d="m 173.50535,367.14138 c 84.88381,34.07992 49.88135,57.25951 -1.52998,78.94716"
     id="path4008-2-3"
     inkscape:connector-type="polyline"
     inkscape:connector-curvature="0"
     sodipodi:nodetypes="cc" />
  <text
     xml:space="preserve"
     style="font-style:normal;font-variant:normal;font-weight:bold;font-stretch:normal;font-size:26.6667px;line-height:1.25;font-family:Poppins;-inkscape-font-specification:'Poppins Bold';fill:#fab387"
     x="328.01178"
     y="539.33557"
     id="text4555-2"><tspan
       sodipodi:role="line"
       id="tspan4553-8"
       x="328.01178"
       y="539.33557">WORK AGAIN</tspan></text>
  <text
     xml:space="preserve"
     style="font-style:normal;font-variant:normal;font-weight:bold;font-stretch:normal;font-size:26.6667px;line-height:1.25;font-family:Poppins;-inkscape-font-specification:'Poppins Bold';fill:#fab387"
     x="310.67264"
     y="646.89246"
     id="text4555-9"><tspan
       sodipodi:role="line"
       id="tspan4553-2"
       x="310.67264"
       y="646.89246"
       style="fill:#a6e3a1">READY !</tspan></text>
  <text
     xml:space="preserve"
     style="font-style:normal;font-variant:normal;font-weight:bold;font-stretch:normal;font-size:26.6667px;line-height:1.25;font-family:Poppins;-inkscape-font-specification:'Poppins Bold';fill:#fab387"
     x="303.23602"
     y="418.95322"
     id="text4555-0"><tspan
       sodipodi:role="line"
       id="tspan4553-23"
       x="303.23602"
       y="418.95322"
       style="fill:#cba6f7">WAIT...</tspan></text>
  <path
     style="fill:none;fill-rule:evenodd;stroke:#cdd6f4;stroke-width:3;stroke-linecap:butt;stroke-linejoin:miter;stroke-dasharray:none;stroke-opacity:1;marker-end:url(#Arrow3-6)"
     d="m 158.80689,360.14721 940.13121,2.06993"
     id="path2731-6"
     inkscape:connector-type="polyline"
     inkscape:connector-curvature="0" />
  <path
     style="fill:none;stroke:#a6e3a1;stroke-width:3;stroke-linecap:butt;stroke-linejoin:miter;stroke-dasharray:none;stroke-opacity:1"
     d="m 235.26264,635.03636 17.39775,20.8031 31.77444,-39.84748"
     id="check" />
  <path
     style="fill:none;stroke:#cba6f7;stroke-width:3;stroke-linecap:butt;stroke-linejoin:miter;stroke-dasharray:none;stroke-opacity:1"
     d="m 246.8099,381.74255 0.0485,14.18786 c -0.13109,6.20469 14.5661,5.58088 14.89983,10.75552 l 0.17043,4.72446 c -0.1259,5.3522 -15.48814,5.16323 -15.28917,11.59028 l 0.0364,13.4743 35.16192,0.22422 -0.22877,-13.93107 c -0.024,-6.41117 -15.35467,-5.84662 -15.14449,-10.90172 l 0.2477,-4.96913 c -0.18602,-5.07599 14.83199,-5.19805 15.05132,-11.09033 l -0.0386,-13.93032 z"
     id="sand"
     class="wait"
     sodipodi:nodetypes="ccccccccccccc" />
</svg>
